<?xml version="1.0" encoding="UTF-8" standalone="no"?>
<!DOCTYPE svg PUBLIC "-//W3C//DTD SVG 1.1//EN" "http://www.w3.org/Graphics/SVG/1.1/DTD/svg11.dtd">
<svg height="100%" stroke-miterlimit="10" style="fill-rule:nonzero;clip-rule:evenodd;stroke-linecap:round;stroke-linejoin:round;" version="1.1" viewBox="0 0 841.995 595.35" width="100%" xml:space="preserve" xmlns="http://www.w3.org/2000/svg" xmlns:vectornator="http://vectornator.io" xmlns:xlink="http://www.w3.org/1999/xlink">
<defs>
<radialGradient cx="460.371" cy="286.787" gradientTransform="matrix(1 0 0 1 0 0)" gradientUnits="userSpaceOnUse" id="RadialGradient" r="64.3178">
<stop offset="0" stop-color="#ff7b7b"/>
<stop offset="1" stop-color="#000000"/>
</radialGradient>
<radialGradient cx="309.523" cy="328.755" gradientTransform="matrix(1 0 0 1 -9.08486 0)" gradientUnits="userSpaceOnUse" id="RadialGradient_2" r="111.475">
<stop offset="0" stop-color="#ff7b7b"/>
<stop offset="1" stop-color="#000000"/>
</radialGradient>
</defs>
<g id="Layer-1" vectornator:layerName="Layer 1">
<path d="M281.755 310.331C281.755 314.05 280.888 317.534 279.154 320.784C277.419 324.034 274.81 326.636 271.326 328.589C267.841 330.542 263.599 331.519 258.599 331.519C254.599 331.519 250.771 331.003 247.115 329.972C243.458 328.941 240.099 327.378 237.037 325.284L237.037 311.269C239.037 312.769 241.857 314.284 245.498 315.816C249.138 317.347 252.302 318.113 254.99 318.113C258.177 318.113 260.412 317.277 261.693 315.605C262.974 313.933 263.615 312.206 263.615 310.425C263.615 308.956 263.24 307.566 262.49 306.253C261.74 304.941 260.451 303.855 258.623 302.995C256.794 302.136 254.333 301.706 251.24 301.706C247.833 301.706 244.568 302.331 241.443 303.581L241.443 265.706L279.083 265.706L279.083 279.394L255.833 279.394L255.833 290.55C256.333 290.487 256.857 290.433 257.404 290.386C257.951 290.339 258.341 290.308 258.576 290.292C258.81 290.277 259.271 290.269 259.958 290.269C264.333 290.269 268.177 291.191 271.49 293.034C274.802 294.878 277.341 297.323 279.107 300.37C280.873 303.417 281.755 306.737 281.755 310.331Z" fill="#000000" fill-rule="nonzero" opacity="1" stroke="none"/>
<path d="M349.427 330.675L328.615 330.675L319.38 317.128L310.193 330.675L291.724 330.675L310.193 307.238L291.349 282.956L312.115 282.956L320.927 295.941L329.833 282.956L348.302 282.956L330.255 305.597L349.427 330.675Z" fill="#000000" fill-rule="nonzero" opacity="1" stroke="none"/>
<path d="M405.521 267.581L377.771 331.519L362.677 326.738L382.552 280.097L356.255 280.097L356.255 265.706L405.521 265.706L405.521 267.581Z" fill="#000000" fill-rule="nonzero" opacity="1" stroke="none"/>

<path d="M524.365 310.894L490.755 310.894C491.412 313.8 493.021 316.175 495.583 318.019C498.146 319.863 501.052 320.784 504.302 320.784C509.99 320.784 516.271 319.191 523.146 316.003L523.146 326.456C520.677 327.738 517.685 328.902 514.169 329.948C510.654 330.995 506.177 331.519 500.74 331.519C494.865 331.519 489.865 330.425 485.74 328.238C481.615 326.05 478.529 323.081 476.482 319.331C474.435 315.581 473.412 311.331 473.412 306.581C473.412 301.894 474.435 297.698 476.482 293.995C478.529 290.292 481.615 287.386 485.74 285.277C489.865 283.167 494.865 282.113 500.74 282.113C504.615 282.113 508.357 282.948 511.966 284.62C515.576 286.292 518.544 289.027 520.872 292.823C523.201 296.62 524.365 301.519 524.365 307.519L524.365 310.894ZM508.521 302.55C508.521 299.487 507.763 297.042 506.248 295.214C504.732 293.386 502.552 292.472 499.708 292.472C496.896 292.472 494.623 293.402 492.888 295.261C491.154 297.12 490.287 299.55 490.287 302.55L508.521 302.55Z" fill="#000000" fill-rule="nonzero" opacity="1" stroke="none"/>
<path d="M604.224 299.363C604.224 306.019 603.013 311.362 600.591 315.394C598.169 319.425 595.318 322.691 592.037 325.191C587.38 328.847 580.865 330.675 572.49 330.675L537.427 330.675L537.427 265.706L564.427 265.706C568.49 265.706 571.966 265.917 574.857 266.339C577.748 266.761 580.349 267.355 582.662 268.12C584.974 268.886 586.943 269.745 588.568 270.698C590.193 271.652 591.646 272.675 592.927 273.769C595.146 275.581 597.091 277.722 598.763 280.191C600.435 282.659 601.763 285.519 602.747 288.769C603.732 292.019 604.224 295.55 604.224 299.363ZM584.302 298.519C584.302 293.237 583.294 289.12 581.279 286.167C579.263 283.214 576.841 281.238 574.013 280.238C571.185 279.237 568.302 278.738 565.365 278.738L557.021 278.738L557.021 317.222L565.365 317.222C570.49 317.222 574.927 316.003 578.677 313.566C582.427 311.128 584.302 306.113 584.302 298.519Z" fill="#000000" fill-rule="nonzero" opacity="1" stroke="none"/>
<path d="M219.61 364.351C245.405 323.077 259.783 275.479 259.783 226.654C259.783 206.393 259.783 186.133 259.783 165.872C259.783 165.297 259.379 149.769 260.198 149.51C261.726 149.026 273.187 167.337 274.475 168.953C284.742 181.835 297.591 191.889 310.9 201.425C329.134 214.491 348.258 226.189 366.914 238.616C372.441 242.298 381.073 247.17 381.264 254.701C381.445 261.9 372.224 270.201 368.56 275.318C357.181 291.207 346.481 307.916 336.087 324.487C335.1 326.06 325.197 341.055 329.397 341.559C332.795 341.966 336.539 341.559 339.958 341.559C340.801 341.559 353.321 344.364 348.661 344.37C346.944 344.372 345.227 344.37 343.511 344.37C341.422 344.37 339.312 344.667 337.244 344.37C334.888 344.031 332.59 343.307 330.359 342.479C322.329 339.502 314.836 335.288 307.42 331.071C287.916 319.981 270.095 306.205 252.62 292.21C246.149 287.028 239.8 282.197 234.131 276.1C231.652 273.434 228.728 269.874 228.997 269.532C230.236 267.958 243.254 270.539 244.919 270.803C259.787 273.163 275.475 273.38 290.52 272.604C301.734 272.026 307.412 260.019 317.443 256.16C319.362 255.422 326.688 252.99 328.525 255.256C329.263 256.165 329.836 260.107 328.281 260.463C326.171 260.944 323.412 260.463 321.24 260.463" fill="none" opacity="1" stroke="#ff0000" stroke-linecap="round" stroke-linejoin="miter" stroke-width="18.25" vectornator:layerName="Curve 1"/>
<path d="M291.349 292.365C291.349 253.486 306.969 221.969 326.237 221.969L447.802 221.969C467.07 221.969 482.69 253.486 482.69 292.365L482.69 293.955C482.69 332.833 467.07 364.351 447.802 364.351L326.237 364.351C306.969 364.351 291.349 332.833 291.349 293.955L291.349 292.365Z" fill="#ffffff" fill-rule="nonzero" opacity="1" stroke="none" vectornator:layerName="Rectangle 1"/>
<path d="M552.476 359.299L492.044 315.393L515.127 244.351L589.825 244.351L612.908 315.393L552.476 359.299Z" fill="#e6a7a7" fill-rule="nonzero" opacity="1" stroke="none" vectornator:layerName="Polygon 1"/>
<path d="M396.054 345.063L496.91 228.512L524.689 343.245L396.054 345.063Z" fill="url(#RadialGradient)" fill-rule="nonzero" opacity="1" stroke="#000000" stroke-linecap="butt" stroke-linejoin="miter" stroke-width="12" vectornator:layerName="Curve 3"/>
<path d="M188.963 293.16L411.913 293.16L411.913 364.351L188.963 364.351L188.963 293.16Z" fill="url(#RadialGradient_2)" fill-rule="nonzero" opacity="1" stroke="none" vectornator:layerName="Rectangle 2"/>
</g>
</svg>
